HIERARCHY
ROOT hip
{
  OFFSET 0 0 0
  CHANNELS 6 Xposition Yposition Zposition Zrotation Yrotation Xrotation
  JOINT abdomen
  {
    OFFSET 0 20.6881 -0.73152
    CHANNELS 3 Zrotation Xrotation Yrotation
    JOINT chest
    {
      OFFSET 0 11.7043 -0.48768
      CHANNELS 3 Zrotation Xrotation Yrotation
      JOINT neck
      {
        OFFSET 0 22.1894 -2.19456
        CHANNELS 3 Zrotation Xrotation Yrotation
        JOINT head
        {
          OFFSET -0.24384 7.07133 1.2192
          CHANNELS 3 Zrotation Xrotation Yrotation
          JOINT leftEye
          {
            OFFSET 4.14528 8.04674 8.04672
            CHANNELS 3 Zrotation Xrotation Yrotation
            End Site
            {
              OFFSET 1 0 0
            }
          }
          JOINT rightEye
          {
            OFFSET -3.6576 8.04674 8.04672
            CHANNELS 3 Zrotation Xrotation Yrotation
            End Site
            {
              OFFSET 1 0 0
            }
          }
        }
      }
      JOINT rCollar
      {
        OFFSET -2.68224 19.2634 -4.8768
        CHANNELS 3 Zrotation Xrotation Yrotation
        JOINT rShldr
        {
          OFFSET -8.77824 -1.95073 1.46304
          CHANNELS 3 Zrotation Xrotation Yrotation
          JOINT rForeArm
          {
            OFFSET -28.1742 -1.7115 0.48768
            CHANNELS 3 Zrotation Xrotation Yrotation
            JOINT rHand
            {
              OFFSET -22.5879 0.773209 7.07136
              CHANNELS 3 Zrotation Xrotation Yrotation
              JOINT rThumb1
              {
                OFFSET -1.2192 -0.487915 3.41376
                CHANNELS 3 Zrotation Xrotation Yrotation
                JOINT rThumb2
                {
                  OFFSET -3.37035 -0.52449 3.41376
                  CHANNELS 3 Zrotation Xrotation Yrotation
                  End Site
                  {
                    OFFSET -1.78271 -1.18214 1.43049
                  }
                }
              }
              JOINT rIndex1
              {
                OFFSET -7.75947 0.938293 5.60832
                CHANNELS 3 Zrotation Xrotation Yrotation
                JOINT rIndex2
                {
                  OFFSET -2.54057 -0.884171 1.56538
                  CHANNELS 3 Zrotation Xrotation Yrotation
                  End Site
                  {
                    OFFSET -1.62519 -0.234802 1.16502
                  }
                }
              }
              JOINT rMid1
              {
                OFFSET -8.24714 1.18213 3.41376
                CHANNELS 3 Zrotation Xrotation Yrotation
                JOINT rMid2
                {
                  OFFSET -3.10165 -0.590103 1.0647
                  CHANNELS 3 Zrotation Xrotation Yrotation
                  End Site
                  {
                    OFFSET -2.48547 -0.328903 0.83742
                  }
                }
              }
              JOINT rRing1
              {
                OFFSET -8.82822 0.546677 1.51678
                CHANNELS 3 Zrotation Xrotation Yrotation
                JOINT rRing2
                {
                  OFFSET -2.60934 -0.819778 -0.0198488
                  CHANNELS 3 Zrotation Xrotation Yrotation
                  End Site
                  {
                    OFFSET -2.33842 -0.294052 0.168128
                  }
                }
              }
              JOINT rPinky1
              {
                OFFSET -8.27202 -0.0477905 -0.4584
                CHANNELS 3 Zrotation Xrotation Yrotation
                JOINT rPinky2
                {
                  OFFSET -1.82734 -0.647385 -0.700984
                  CHANNELS 3 Zrotation Xrotation Yrotation
                  End Site
                  {
                    OFFSET -1.69225 -0.51767 -0.607171
                  }
                }
              }
            }
          }
        }
      }
      JOINT lCollar
      {
        OFFSET 2.68224 19.2634 -4.8768
        CHANNELS 3 Zrotation Xrotation Yrotation
        JOINT lShldr
        {
          OFFSET 8.77824 -1.95073 1.46304
          CHANNELS 3 Zrotation Xrotation Yrotation
          JOINT lForeArm
          {
            OFFSET 28.1742 -1.7115 0.48768
            CHANNELS 3 Zrotation Xrotation Yrotation
            JOINT lHand
            {
              OFFSET 22.5879 0.773209 7.07136
              CHANNELS 3 Zrotation Xrotation Yrotation
              JOINT lThumb1
              {
                OFFSET 1.2192 -0.487915 3.41376
                CHANNELS 3 Zrotation Xrotation Yrotation
                JOINT lThumb2
                {
                  OFFSET 3.37035 -0.52449 3.41376
                  CHANNELS 3 Zrotation Xrotation Yrotation
                  End Site
                  {
                    OFFSET 1.78271 -1.18214 1.43049
                  }
                }
              }
              JOINT lIndex1
              {
                OFFSET 7.75947 0.938293 5.60832
                CHANNELS 3 Zrotation Xrotation Yrotation
                JOINT lIndex2
                {
                  OFFSET 2.54057 -0.884171 1.56538
                  CHANNELS 3 Zrotation Xrotation Yrotation
                  End Site
                  {
                    OFFSET 1.62519 -0.234802 1.16502
                  }
                }
              }
              JOINT lMid1
              {
                OFFSET 8.24714 1.18213 3.41376
                CHANNELS 3 Zrotation Xrotation Yrotation
                JOINT lMid2
                {
                  OFFSET 3.10165 -0.590103 1.0647
                  CHANNELS 3 Zrotation Xrotation Yrotation
                  End Site
                  {
                    OFFSET 2.48547 -0.328903 0.83742
                  }
                }
              }
              JOINT lRing1
              {
                OFFSET 8.82822 0.546677 1.51678
                CHANNELS 3 Zrotation Xrotation Yrotation
                JOINT lRing2
                {
                  OFFSET 2.60934 -0.819778 -0.0198488
                  CHANNELS 3 Zrotation Xrotation Yrotation
                  End Site
                  {
                    OFFSET 2.33842 -0.294052 0.168128
                  }
                }
              }
              JOINT lPinky1
              {
                OFFSET 8.27202 -0.0477905 -0.4584
                CHANNELS 3 Zrotation Xrotation Yrotation
                JOINT lPinky2
                {
                  OFFSET 1.82734 -0.647385 -0.700984
                  CHANNELS 3 Zrotation Xrotation Yrotation
                  End Site
                  {
                    OFFSET 1.69225 -0.51767 -0.607171
                  }
                }
              }
            }
          }
        }
      }
    }
  }
  JOINT rButtock
  {
    OFFSET -8.77824 4.35084 1.2192
    CHANNELS 3 Zrotation Xrotation Yrotation
    JOINT rThigh
    {
      OFFSET 0 -1.70687 -2.19456
      CHANNELS 3 Zrotation Xrotation Yrotation
      JOINT rShin
      {
        OFFSET 0 -36.8199 0.73152
        CHANNELS 3 Zrotation Xrotation Yrotation
        JOINT rFoot
        {
          OFFSET 0.73152 -45.1104 -5.12064
          CHANNELS 3 Zrotation Xrotation Yrotation
          End Site
          {
            OFFSET -1.1221 -3.69964 12.103
          }
        }
      }
    }
  }
  JOINT lButtock
  {
    OFFSET 8.77824 4.35084 1.2192
    CHANNELS 3 Zrotation Xrotation Yrotation
    JOINT lThigh
    {
      OFFSET 0 -1.70687 -2.19456
      CHANNELS 3 Zrotation Xrotation Yrotation
      JOINT lShin
      {
        OFFSET 0 -36.8199 0.73152
        CHANNELS 3 Zrotation Xrotation Yrotation
        JOINT lFoot
        {
          OFFSET -0.73152 -45.1104 -5.12064
          CHANNELS 3 Zrotation Xrotation Yrotation
          End Site
          {
            OFFSET 1.1221 -3.69964 12.103
          }
        }
      }
    }
  }
}
MOTION
Frames:	7
Frame Time:	0.00833333
34.9907 82.7943 -2.64545 10.4285 -48.2213 -7.6882 -8.87615 12.6409 -0.289692 2.59212 -5.07411 -0.261583 -10.7546 -3.8685 -3.98012 12.1919 3.87812 -4.81488 -0.0 0.0 0.0 -0.0 0.0 0.0 3.23748e-13 5.76655e-13 -1.36122e-12 80.5351 17.8263 0.608685 -16.5214 -9.18073 30.7816 -0.0651331 7.2642 1.02647 5.78991e-09 -7.16957e-09 -4.14279e-09 9.98734e-09 -1.2418e-08 -7.21598e-09 5.78991e-09 -7.16957e-09 -4.14279e-09 7.73091 5.47488 0.417314 5.78991e-09 -7.16958e-09 -4.14278e-09 2.90554 0.965183 0.102902 5.78991e-09 -7.16957e-09 -4.14278e-09 10.2786 0.731801 0.0259123 5.7899e-09 -7.16957e-09 -4.14278e-09 2.22167 -0.733487 -0.20892 3.2365e-13 5.76656e-13 -1.36139e-12 -73.1834 27.2772 -3.94269 17.0784 -9.7286 -31.9846 0.0364678 5.43165 -0.765702 5.25189e-09 -9.66511e-09 -1.61923e-09 9.07852e-09 -1.67854e-08 -2.8359e-09 5.25189e-09 -9.66511e-09 -1.61921e-09 -7.73091 5.47488 -0.417314 5.25189e-09 -9.66511e-09 -1.61923e-09 -2.90554 0.965183 -0.102902 5.25188e-09 -9.66511e-09 -1.61923e-09 -10.2786 0.731801 -0.0259123 5.25189e-09 -9.66511e-09 -1.61924e-09 -2.22167 -0.733487 0.20892 -2.03217e-16 0.0 -3.88251e-19 -10.6973 -35.8336 -5.81872 -0.248725 34.6606 0.606504 -1.27032 -3.25052 -4.81749 2.03217e-16 0.0 3.88251e-19 -12.1277 3.5737 1.51175 -0.0226056 12.6106 -0.501628 -0.65539 -9.70588 -6.21599
34.3609 82.8775 -2.14238 10.3255 -48.1086 -7.5778 -8.85289 12.4736 -0.441567 2.6492 -4.99677 -0.296165 -10.8033 -3.79842 -3.98278 12.3361 3.81926 -4.81583 -0.0 0.0 0.0 -0.0 0.0 0.0 2.49221e-13 5.1565e-13 -9.49014e-13 80.6735 17.6414 0.454817 -16.4696 -9.1308 30.6709 -0.0674408 7.39153 1.04467 3.57229e-09 -4.8774e-09 -3.736e-09 6.154e-09 -8.44721e-09 -6.49462e-09 3.57229e-09 -4.8774e-09 -3.736e-09 7.73091 5.47488 0.417314 3.57229e-09 -4.87741e-09 -3.736e-09 2.90554 0.965183 0.102902 3.57229e-09 -4.8774e-09 -3.736e-09 10.2786 0.731801 0.0259123 3.57228e-09 -4.8774e-09 -3.73599e-09 2.22167 -0.733487 -0.20892 2.49149e-13 5.15645e-13 -9.49293e-13 -73.1009 27.4235 -3.93127 17.0882 -9.73851 -32.006 0.0377312 5.52532 -0.778989 3.26189e-09 -7.8419e-09 -1.24619e-09 5.63836e-09 -1.36077e-08 -2.17758e-09 3.26189e-09 -7.8419e-09 -1.24617e-09 -7.73091 5.47488 -0.417314 3.2619e-09 -7.84189e-09 -1.24619e-09 -2.90554 0.965183 -0.102902 3.26189e-09 -7.84189e-09 -1.24619e-09 -10.2786 0.731801 -0.0259123 3.2619e-09 -7.8419e-09 -1.2462e-09 -2.22167 -0.733487 0.20892 -2.03217e-16 0.0 -3.88251e-19 -10.4902 -35.474 -5.53993 -0.206875 31.7091 0.550088 -1.33853 -3.72713 -5.09841 2.03217e-16 0.0 3.88251e-19 -12.1069 4.87346 1.42068 -0.0245482 11.1385 -0.477892 -0.617796 -9.24767 -6.25187
33.7197 82.9053 -1.61917 10.4265 -48.0883 -7.6009 -8.83354 12.2873 -0.597518 2.70849 -4.90989 -0.332497 -10.8539 -3.72814 -3.99297 12.4706 3.74782 -4.82894 -0.0 0.0 0.0 -0.0 0.0 0.0 1.59128e-13 4.19261e-13 -5.09878e-13 80.8127 17.4592 0.285041 -16.4173 -9.08069 30.559 -0.0698135 7.51875 1.06286 1.239e-09 -2.37013e-09 -3.08224e-09 2.12207e-09 -4.10387e-09 -5.34488e-09 1.23901e-09 -2.37013e-09 -3.08224e-09 7.73091 5.47488 0.417314 1.23901e-09 -2.37014e-09 -3.08224e-09 2.90554 0.965183 0.102902 1.23901e-09 -2.37013e-09 -3.08224e-09 10.2786 0.731801 0.0259123 1.239e-09 -2.37013e-09 -3.08223e-09 2.22167 -0.733487 -0.20892 1.59077e-13 4.1925e-13 -5.10266e-13 -73.0315 27.5646 -3.92402 17.0832 -9.73374 -31.9948 0.0398771 5.68502 -0.801644 1.13735e-09 -5.53536e-09 -7.96589e-10 1.96544e-09 -9.59178e-09 -1.3859e-09 1.13735e-09 -5.53536e-09 -7.96575e-10 -7.73091 5.47488 -0.417314 1.13736e-09 -5.53536e-09 -7.96588e-10 -2.90554 0.965183 -0.102902 1.13735e-09 -5.53536e-09 -7.96593e-10 -10.2786 0.731801 -0.0259123 1.13736e-09 -5.53536e-09 -7.96604e-10 -2.22167 -0.733487 0.20892 -2.03217e-16 0.0 -3.88251e-19 -10.2647 -35.1388 -5.11229 -0.172872 28.8994 0.503233 -1.43074 -4.32497 -5.43774 2.03217e-16 0.0 3.88251e-19 -12.0838 6.17237 1.26408 -0.0265118 9.64209 -0.452437 -0.56713 -8.75177 -6.25477
33.0999 82.888 -1.07872 10.6938 -48.0156 -7.6771 -8.8674 12.0659 -0.764187 2.7964 -4.82333 -0.372247 -10.8845 -3.68681 -4.0027 12.5351 3.69856 -4.84244 -0.0 0.0 0.0 -0.0 0.0 0.0 9.14663e-14 3.16075e-13 -2.63738e-13 80.9369 17.2881 0.107437 -16.3567 -9.02296 30.4294 -0.07186 7.6259 1.07819 -1.721e-11 -9.14759e-10 -2.46178e-09 -4.71597e-11 -1.58281e-09 -4.26137e-09 -1.72064e-11 -9.14763e-10 -2.46178e-09 7.73091 5.47488 0.417314 -1.72082e-11 -9.14765e-10 -2.46178e-09 2.90554 0.965183 0.102902 -1.72016e-11 -9.14762e-10 -2.46178e-09 10.2786 0.731801 0.0259123 -1.7211e-11 -9.14761e-10 -2.46177e-09 2.22167 -0.733487 -0.20892 9.14217e-14 3.16061e-13 -2.64185e-13 -72.9874 27.6783 -3.91866 17.0737 -9.72431 -31.9738 0.0421847 5.85189 -0.825329 -5.76508e-11 -3.82642e-09 -4.92557e-10 -1.00922e-10 -6.62084e-09 -8.52269e-10 -5.76507e-11 -3.82641e-09 -4.92544e-10 -7.73091 5.47488 -0.417314 -5.76471e-11 -3.82642e-09 -4.92557e-10 -2.90554 0.965183 -0.102902 -5.76521e-11 -3.82642e-09 -4.9256e-10 -10.2786 0.731801 -0.0259123 -5.7645e-11 -3.82642e-09 -4.92569e-10 -2.22167 -0.733487 0.20892 -2.03217e-16 0.0 -3.88251e-19 -10.0575 -34.9196 -4.41475 -0.147127 26.4172 0.469886 -1.56131 -5.02125 -5.90092 2.03217e-16 0.0 3.88251e-19 -12.1052 7.40638 1.06818 -0.0283806 8.21044 -0.428362 -0.513391 -8.27434 -6.24735
32.4689 82.8855 -0.515219 10.8828 -47.9055 -7.6694 -8.98569 11.7752 -0.965019 2.93608 -4.72214 -0.422058 -10.8838 -3.68734 -4.00979 12.4852 3.68066 -4.85292 -0.0 0.0 0.0 -0.0 0.0 0.0 6.09625e-14 1.99727e-13 -3.65932e-13 81.0346 17.1456 -0.0775121 -16.2875 -8.9572 30.282 -0.073328 7.70179 1.08905 5.91477e-10 -1.30269e-09 -1.94723e-09 1.00825e-09 -2.25489e-09 -3.37619e-09 5.9148e-10 -1.30269e-09 -1.94723e-09 7.73091 5.47488 0.417314 5.91478e-10 -1.30269e-09 -1.94723e-09 2.90554 0.965183 0.102902 5.91487e-10 -1.30269e-09 -1.94723e-09 10.2786 0.731801 0.0259123 5.91476e-10 -1.30269e-09 -1.94723e-09 2.22167 -0.733487 -0.20892 6.08974e-14 1.99718e-13 -3.66364e-13 -72.9807 27.748 -3.91472 17.0602 -9.71081 -31.9444 0.044836 6.03853 -0.851837 3.23081e-10 -3.17243e-09 -4.49627e-10 5.55709e-10 -5.49394e-09 -7.81054e-10 3.23081e-10 -3.17242e-09 -4.49618e-10 -7.73091 5.47488 -0.417314 3.23085e-10 -3.17243e-09 -4.49627e-10 -2.90554 0.965183 -0.102902 3.23079e-10 -3.17243e-09 -4.49628e-10 -10.2786 0.731801 -0.0259123 3.23086e-10 -3.17243e-09 -4.49635e-10 -2.22167 -0.733487 0.20892 -2.03217e-16 0.0 -3.88251e-19 -9.84807 -34.8453 -3.14578 -0.126975 24.2462 0.452012 -1.78141 -5.94294 -6.65469 2.03217e-16 0.0 3.88251e-19 -12.2014 8.60579 0.799839 -0.0311098 6.75522 -0.403817 -0.449353 -7.78615 -6.21499
31.8906 82.9122 0.0284653 11.1833 -47.6884 -7.6708 -9.15742 11.4337 -1.18901 3.10819 -4.60692 -0.478967 -10.8653 -3.71248 -4.01853 12.3624 3.6756 -4.86675 -0.0 0.0 0.0 -0.0 0.0 0.0 4.58204e-14 5.96352e-14 -6.66935e-13 81.1168 17.0221 -0.273602 -16.2132 -8.88673 30.1244 -0.0744347 7.759 1.09724 2.27235e-09 -2.707e-09 -1.38982e-09 3.91818e-09 -4.68767e-09 -2.42548e-09 2.27235e-09 -2.707e-09 -1.38982e-09 7.73091 5.47488 0.417314 2.27235e-09 -2.707e-09 -1.38982e-09 2.90554 0.965183 0.102902 2.27236e-09 -2.707e-09 -1.38982e-09 10.2786 0.731801 0.0259123 2.27235e-09 -2.707e-09 -1.38982e-09 2.22167 -0.733487 -0.20892 4.57167e-14 5.96352e-14 -6.67308e-13 -73.0019 27.789 -3.91339 17.038 -9.68854 -31.8962 0.0482663 6.2669 -0.884303 1.59122e-09 -2.94052e-09 -5.30564e-10 2.74571e-09 -5.10779e-09 -9.3017e-10 1.59122e-09 -2.94052e-09 -5.3056e-10 -7.73091 5.47488 -0.417314 1.59123e-09 -2.94052e-09 -5.30566e-10 -2.90554 0.965183 -0.102902 1.59122e-09 -2.94052e-09 -5.30564e-10 -10.2786 0.731801 -0.0259123 1.59123e-09 -2.94052e-09 -5.30566e-10 -2.22167 -0.733487 0.20892 -2.03217e-16 0.0 -3.88251e-19 -9.62309 -34.8487 -1.45686 -0.109576 22.3092 0.444831 -2.09222 -7.05365 -7.61879 2.03217e-16 0.0 3.88251e-19 -12.334 9.7888 0.456926 -0.0342632 5.26629 -0.377995 -0.374262 -7.27184 -6.15279
31.2888 82.9598 0.50956 11.2675 -47.4571 -7.5459 -9.33734 11.1045 -1.39136 3.27521 -4.51084 -0.530245 -10.8445 -3.7461 -4.03058 12.2356 3.67662 -4.88681 -0.0 0.0 0.0 -0.0 0.0 0.0 2.92503e-14 -8.19477e-14 -9.2938e-13 81.2014 16.8852 -0.479125 -16.1313 -8.80967 29.9509 -0.075479 7.81333 1.10502 3.84733e-09 -3.96724e-09 -7.37764e-10 6.64587e-09 -6.87106e-09 -1.30988e-09 3.84733e-09 -3.96724e-09 -7.37771e-10 7.73091 5.47488 0.417314 3.84733e-09 -3.96724e-09 -7.37764e-10 2.90554 0.965183 0.102902 3.84734e-09 -3.96724e-09 -7.37768e-10 10.2786 0.731801 0.0259123 3.84733e-09 -3.96723e-09 -7.37768e-10 2.22167 -0.733487 -0.20892 2.91096e-14 -8.19387e-14 -9.29681e-13 -73.0308 27.8274 -3.91481 17.0091 -9.65967 -31.8335 0.0518753 6.49217 -0.916368 2.80908e-09 -2.57631e-09 -5.78342e-10 4.84933e-09 -4.49193e-09 -1.02137e-09 2.80908e-09 -2.57631e-09 -5.78343e-10 -7.73091 5.47488 -0.417314 2.80908e-09 -2.57631e-09 -5.78344e-10 -2.90554 0.965183 -0.102902 2.80907e-09 -2.57631e-09 -5.7834e-10 -10.2786 0.731801 -0.0259123 2.80908e-09 -2.57631e-09 -5.78339e-10 -2.22167 -0.733487 0.20892 -2.03217e-16 0.0 -3.88251e-19 -9.42611 -34.8925 0.0949028 -0.0951283 20.7011 0.44214 -2.40867 -8.08926 -8.48441 2.03217e-16 0.0 3.88251e-19 -12.4562 10.8732 0.113086 -0.0366036 3.94998 -0.355275 -0.306114 -6.80858 -6.09727
